<svg width="69px" height="69px" viewBox="0 0 24 24" fill="none" xmlns="http://www.w3.org/2000/svg" stroke="#00"><g id="SVGRepo_bgCarrier" stroke-width="0"></g><g id="SVGRepo_tracerCarrier" stroke-linecap="round" stroke-linejoin="round"></g><g id="SVGRepo_iconCarrier"> <path d="M11 8.5C11 9.88071 9.88071 11 8.5 11C7.11929 11 6 9.88071 6 8.5C6 7.11929 7.11929 6 8.5 6C9.88071 6 11 7.11929 11 8.5Z" stroke="#ffffff" stroke-width="2"></path> <path d="M18 5.5C18 6.88071 16.8807 8 15.5 8C14.1193 8 13 6.88071 13 5.5C13 4.11929 14.1193 3 15.5 3C16.8807 3 18 4.11929 18 5.5Z" stroke="#ffffff" stroke-width="2"></path> <path d="M15.5 20C14.5 21 3.00002 20.5 2.00001 20C1 19.5 5.41016 15 9.00001 15C12.5899 15 16.076 19.424 15.5 20Z" stroke="#ffffff" stroke-width="2" stroke-linecap="round" stroke-linejoin="round"></path> <path fill-rule="evenodd" clip-rule="evenodd" d="M15.3522 16.2905C16.0024 16.991 16.5501 17.7108 16.9695 18.3146C17.4791 18.3176 18.1122 18.3174 18.7714 18.3075C19.5445 18.296 20.365 18.2711 21.0682 18.2214C21.4193 18.1965 21.7527 18.1647 22.0422 18.1231C22.3138 18.0841 22.6125 18.028 22.8585 17.9335C23.0969 17.8419 23.3323 17.6857 23.5095 17.4429C23.6862 17.2007 23.7604 16.9334 23.7757 16.6907C23.8039 16.2435 23.6381 15.8272 23.4749 15.5192C23.1328 14.8736 22.5127 14.1722 21.7887 13.5408C20.3574 12.2925 18.1471 11 16 11C14.8369 11 13.97 11.1477 13.192 11.5887C12.4902 11.9866 11.9357 12.5909 11.3341 13.2466L11.2634 13.3236L11.1127 13.4877C11.8057 13.6622 12.4547 13.9653 13.0499 14.337C13.5471 13.8034 13.845 13.5176 14.1784 13.3285C14.5278 13.1305 14.998 13 16 13C17.4427 13 19.196 13.9334 20.4741 15.048C20.9492 15.4624 21.3053 15.8565 21.5299 16.1724C21.3524 16.1926 21.15 16.2106 20.927 16.2263C20.2775 16.2723 19.4991 16.2964 18.7416 16.3077C17.9864 16.319 17.2635 16.3174 16.7285 16.3129C16.4612 16.3106 16.2416 16.3077 16.089 16.3053C16.0127 16.3041 15.9533 16.303 15.9131 16.3023L15.8676 16.3014L15.8562 16.3012L15.8535 16.3011L15.8529 16.3011L15.8528 16.3011L15.8528 16.3011L15.3522 16.2905Z" fill="#ffffff"></path> </g></svg>