<svg fill="#ffffff" height="64px" width="64px" version="1.1" id="Capa_1" xmlns="http://www.w3.org/2000/svg" xmlns:xlink="http://www.w3.org/1999/xlink" viewBox="0 0 611.998 611.998" xml:space="preserve" stroke="#ffffff"><g id="SVGRepo_bgCarrier" stroke-width="0"></g><g id="SVGRepo_tracerCarrier" stroke-linecap="round" stroke-linejoin="round"></g><g id="SVGRepo_iconCarrier"> <g> <g> <g> <path d="M226.378,331.763c-8.34,0-16.57,1.451-24.466,4.306c-18.064,6.539-32.504,19.717-40.655,37.112 c-8.154,17.397-9.042,36.926-2.505,54.99c10.274,28.392,37.453,47.466,67.632,47.466c8.34,0,16.57-1.448,24.469-4.306 c37.288-13.495,56.65-54.809,43.157-92.098C283.739,350.84,256.557,331.763,226.378,331.763z M239.601,440.236 c-4.278,1.55-8.727,2.333-13.218,2.333c-16.302,0-30.986-10.306-36.538-25.65c-3.531-9.76-3.052-20.308,1.353-29.706 c4.402-9.396,12.203-16.517,21.96-20.051c4.278-1.547,8.727-2.333,13.218-2.333c16.302,0,30.986,10.308,36.538,25.653 C270.205,410.628,259.746,432.947,239.601,440.236z"></path> <path d="M418.902,395.925l-19.774-0.901c-0.603-11.635-2.371-23.142-5.258-34.342l18.648-6.746 c8.586-3.108,13.03-12.586,9.921-21.172c-3.105-8.586-12.583-13.024-21.172-9.921l-18.645,6.746 c-4.949-10.455-10.952-20.427-17.933-29.754l14.614-13.342c6.744-6.157,7.222-16.615,1.065-23.357 c-6.155-6.744-16.612-7.222-23.357-1.065l-14.585,13.312c-8.487-7.685-17.841-14.604-27.999-20.602l8.382-17.889 c3.876-8.267,0.315-18.112-7.951-21.988c-8.269-3.873-18.115-0.316-21.988,7.954l-8.382,17.886 c-10.993-3.945-22.265-6.746-33.75-8.374l0.896-19.684c0.417-9.119-6.641-16.85-15.763-17.268 c-9.13-0.417-16.853,6.641-17.268,15.763l-0.898,19.732c-11.706,0.601-23.213,2.371-34.359,5.26l-6.733-18.614 c-3.105-8.586-12.583-13.027-21.169-9.924c-8.586,3.105-13.03,12.586-9.924,21.172l6.765,18.699 c-10.477,4.989-20.432,11-29.709,17.956l-13.406-14.69c-6.155-6.744-16.612-7.222-23.357-1.065 c-6.744,6.154-7.222,16.612-1.065,23.357l13.377,14.658c-7.744,8.53-14.671,17.877-20.638,27.943l-17.919-8.399 c-8.269-3.873-18.111-0.313-21.985,7.957c-3.876,8.267-0.313,18.111,7.954,21.985l17.889,8.382 c-3.969,11.112-6.733,22.414-8.337,33.753l-19.724-0.901c-9.13-0.42-16.853,6.641-17.27,15.763 c-0.417,9.122,6.641,16.853,15.763,17.268l19.771,0.901c0.605,11.635,2.371,23.142,5.258,34.342l-18.648,6.748 c-8.586,3.105-13.027,12.586-9.921,21.172c2.435,6.728,8.783,10.912,15.548,10.912c1.867,0,3.767-0.32,5.624-0.991l18.648-6.748 c4.946,10.455,10.952,20.427,17.933,29.754l-14.617,13.342c-6.743,6.154-7.22,16.615-1.065,23.357 c3.261,3.574,7.731,5.387,12.217,5.387c3.978,0,7.97-1.429,11.141-4.322l14.585-13.312c8.487,7.685,17.841,14.604,28.002,20.602 l-8.382,17.889c-3.876,8.267-0.316,18.111,7.954,21.985c2.268,1.062,4.655,1.567,7.005,1.567c6.217,0,12.171-3.52,14.983-9.52 l8.38-17.883c10.993,3.945,22.265,6.747,33.75,8.374l-0.896,19.681c-0.415,9.122,6.641,16.853,15.763,17.268 c0.256,0.014,0.511,0.019,0.765,0.019c8.786,0,16.101-6.916,16.504-15.782l0.898-19.73c11.706-0.601,23.213-2.374,34.356-5.263 l6.736,18.614c2.436,6.73,8.783,10.912,15.548,10.912c1.867,0,3.767-0.317,5.624-0.991c8.586-3.108,13.03-12.586,9.921-21.172 l-6.765-18.696c10.477-4.986,20.43-11,29.706-17.954l13.411,14.687c3.261,3.574,7.728,5.387,12.214,5.387 c3.98,0,7.97-1.429,11.143-4.325c6.744-6.157,7.217-16.615,1.064-23.357l-13.38-14.655c7.744-8.53,14.673-17.877,20.639-27.943 l17.917,8.399c2.269,1.064,4.655,1.567,7.005,1.567c6.214,0,12.168-3.52,14.98-9.52c3.876-8.267,0.315-18.111-7.951-21.985 l-17.892-8.385c3.969-11.112,6.733-22.411,8.337-33.747l19.727,0.898c0.259,0.014,0.511,0.019,0.767,0.019 c8.783,0,16.098-6.916,16.504-15.78C435.08,404.073,428.025,396.341,418.902,395.925z M353.093,463.083 c-22.943,48.956-72.723,80.591-126.82,80.591c-20.556,0-40.5-4.461-59.276-13.261C97.13,497.669,66.926,414.188,99.667,344.32 c22.943-48.959,72.723-80.594,126.82-80.594c20.556,0,40.5,4.461,59.273,13.258C355.63,309.727,385.833,393.209,353.093,463.083z "></path> <path d="M510.207,123.471c-9.461-26.15-34.492-43.719-62.29-43.719c-7.682,0-15.263,1.332-22.536,3.964 c-34.348,12.429-52.178,50.483-39.751,84.827c9.458,26.149,34.49,43.717,62.288,43.717c7.682,0,15.266-1.335,22.539-3.967 c16.635-6.019,29.935-18.159,37.442-34.178C515.405,158.093,516.227,140.106,510.207,123.471z M416.723,157.291 c-6.225-17.2,2.707-36.257,19.907-42.482c3.654-1.321,7.451-1.991,11.285-1.991c13.918,0,26.455,8.803,31.197,21.901 c3.015,8.331,2.605,17.341-1.157,25.362c-3.759,8.021-10.42,14.1-18.75,17.117c-3.657,1.321-7.454,1.994-11.288,1.994 C433.999,179.192,421.462,170.389,416.723,157.291z"></path> <path d="M578.142,135.388l-8.526-0.387c-0.949-10.311-3.202-20.57-6.819-30.564c-3.614-9.994-8.447-19.319-14.314-27.849 l6.296-5.748c6.744-6.157,7.222-16.615,1.065-23.357c-6.154-6.743-16.612-7.222-23.357-1.065l-6.296,5.748 c-7.962-6.62-16.81-12.279-26.434-16.79c-9.614-4.504-19.588-7.696-29.816-9.574l0.387-8.515 c0.417-9.122-6.641-16.853-15.763-17.27c-9.097-0.408-16.85,6.641-17.268,15.763l-0.39,8.552 c-21.161,1.945-41.223,9.391-58.332,21.189l-5.828-6.386c-6.157-6.744-16.612-7.217-23.357-1.065 c-6.744,6.157-7.22,16.615-1.065,23.357l5.805,6.356c-6.646,7.939-12.341,16.773-16.843,26.379 c-4.509,9.622-7.685,19.633-9.569,29.814l-8.52-0.387c-9.139-0.431-16.853,6.644-17.27,15.763 c-0.415,9.122,6.644,16.853,15.766,17.268l8.517,0.387c0.949,10.311,3.205,20.57,6.819,30.564 c3.617,9.994,8.45,19.318,14.316,27.849l-6.299,5.751c-6.744,6.154-7.22,16.615-1.062,23.357 c3.261,3.571,7.728,5.384,12.214,5.384c3.98,0,7.97-1.429,11.143-4.322l6.296-5.751c7.962,6.62,16.81,12.279,26.433,16.79 c9.615,4.505,19.588,7.696,29.819,9.574l-0.39,8.517c-0.415,9.122,6.644,16.853,15.763,17.268 c0.259,0.014,0.511,0.019,0.767,0.019c8.783,0,16.101-6.916,16.503-15.782l0.39-8.552c21.161-1.945,41.223-9.391,58.329-21.189 l5.831,6.386c3.261,3.574,7.728,5.387,12.214,5.387c3.98,0,7.973-1.429,11.143-4.325c6.744-6.157,7.217-16.615,1.061-23.357 l-5.799-6.353c6.644-7.936,12.338-16.77,16.84-26.377c4.507-9.622,7.685-19.633,9.569-29.814l8.52,0.387 c0.259,0.014,0.514,0.019,0.767,0.019c8.786,0,16.101-6.916,16.504-15.78C594.32,143.536,587.262,135.806,578.142,135.388z M410.102,226.688c-21.552-10.096-37.878-27.987-45.978-50.367c-8.097-22.38-6.994-46.576,3.105-68.127 c14.61-31.178,46.308-51.322,80.755-51.322c13.086,0,25.785,2.842,37.741,8.447c21.551,10.099,37.88,27.987,45.978,50.37 c8.1,22.381,6.996,46.576-3.103,68.127c-14.609,31.175-46.306,51.319-80.755,51.319 C434.763,235.135,422.062,232.292,410.102,226.688z"></path> </g> </g> </g> </g></svg>